<svg width="48" height="48" viewBox="0 0 48 48" fill="none" xmlns="http://www.w3.org/2000/svg">
<rect x="0.5" y="0.5" width="46.548" height="47" rx="23.274" stroke="#EF6039" stroke-opacity="0.300385"/>
<path fill-rule="evenodd" clip-rule="evenodd" d="M33.6798 34.2069V31.7304C34.2022 31.4223 34.5083 30.8472 34.4723 30.2414C34.4723 29.3654 33.9402 28.6552 33.2836 28.6552C32.6269 28.6552 32.0949 29.3654 32.0949 30.2414C32.0589 30.8472 32.365 31.4223 32.8873 31.7304V34.2069H30.1137V22.1589L27.7363 20.9693V23.1034H28.925V23.8966H27.7363V25.4828H28.925V26.2759H27.7363V27.8621H28.925V28.6552H27.7363V30.2414H28.925V31.0345H27.7363V32.6207H28.925V33.4138H27.7363V34.2069H26.9438V18.2472L22.189 16.888V18.3448H24.9627V19.1379H22.189V20.7241H24.9627V21.5172H22.189V23.1034H24.9627V23.8966H22.189V25.4828H24.9627V26.2759H22.189V27.8621H24.9627V28.6552H22.189V30.2414H24.9627V31.0345H22.189V32.6207H24.9627V33.4138H22.189V34.2069H21.3966V12H14.2644V13.5862H17.8305V14.3793H14.2644V15.9655H17.8305V16.7586H14.2644V18.3448H17.8305V19.1379H14.2644V20.7241H17.8305V21.5172H14.2644V23.1034H17.8305V23.8966H14.2644V25.4828H17.8305V26.2759H14.2644V27.8621H17.8305V28.6552H14.2644V30.2414H17.8305V31.0345H14.2644V32.6207H17.8305V33.4138H14.2644V34.2069H11.887V35H35.661V34.2069H33.6798Z" fill="#EF6039"/>
</svg>
