<svg width="17" height="24" viewBox="0 0 17 24" fill="none" xmlns="http://www.w3.org/2000/svg">
<path fill-rule="evenodd" clip-rule="evenodd" d="M9.19825 0V1.70674C8.96546 1.65929 8.7244 1.63411 8.47739 1.63411C8.23037 1.63411 7.98932 1.65929 7.75653 1.70674V0H9.19825ZM8.44798 9.10046L7.3996 11.7708V11.7708H3.55448L5.49658 6.92366C6.12252 7.88896 7.22429 8.53155 8.47739 8.53155C9.70694 8.53155 10.791 7.91297 11.4226 6.97788L13.3442 11.7708H9.49741L8.44798 9.10046ZM10.5633 5.08283C10.5633 6.20907 9.62939 7.12207 8.47739 7.12207C7.32539 7.12207 6.3915 6.20907 6.3915 5.08283C6.3915 3.95659 7.32539 3.04359 8.47739 3.04359C9.62939 3.04359 10.5633 3.95659 10.5633 5.08283ZM0.252734 14.5842V13.1803H17V14.5842H14.4722L16.8945 20.6258L15.9227 20.9992L16.901 23.4293L15.5594 23.9455L14.5809 21.5147L13.4913 21.9332L10.6031 14.5842H9.19825V16.3682H7.75653V14.5842H6.2951L3.40982 21.9332L2.33905 21.5219L1.34157 24L0 23.4838L0.997193 21.0064L0.0064397 20.6258L2.42719 14.5842H0.252734Z" fill="white"/>
</svg>
