<svg width="22" height="21" viewBox="0 0 22 21" fill="none" xmlns="http://www.w3.org/2000/svg">
<path fill-rule="evenodd" clip-rule="evenodd" d="M17.1032 20.9372C16.6976 20.3877 16.4569 19.7051 16.4569 18.9662V0.657026C16.4569 0.294173 16.1683 0 15.8123 0H0.644525C0.288575 0 0 0.294173 0 0.657026V17.6521C0 19.4635 1.44567 20.9372 3.22263 20.9372H17.1032ZM3.43747 12.6149H5.49995C5.8559 12.6149 6.14447 12.9091 6.14447 13.2719C6.14447 13.6348 5.8559 13.929 5.49995 13.929H3.43747C3.08152 13.929 2.79294 13.6348 2.79294 13.2719C2.79294 12.9091 3.08152 12.6149 3.43747 12.6149ZM3.43747 9.81159C3.08152 9.81159 2.79294 10.1058 2.79294 10.4686C2.79294 10.8315 3.08152 11.1256 3.43747 11.1256H5.49995C5.8559 11.1256 6.14447 10.8315 6.14447 10.4686C6.14447 10.1058 5.8559 9.81159 5.49995 9.81159H3.43747ZM13.0624 17.7835H3.43747C3.08152 17.7835 2.79294 17.4893 2.79294 17.1265C2.79294 16.7636 3.08152 16.4695 3.43747 16.4695H13.0624C13.4183 16.4695 13.7069 16.7636 13.7069 17.1265C13.7069 17.4893 13.4183 17.7835 13.0624 17.7835ZM13.0624 14.9802C13.4183 14.9802 13.7069 14.686 13.7069 14.3232V9.41738C13.7069 9.05452 13.4183 8.76035 13.0624 8.76035H8.24992C7.89397 8.76035 7.6054 9.05452 7.6054 9.41738V14.3232C7.6054 14.686 7.89397 14.9802 8.24992 14.9802H13.0624ZM13.0624 7.27109H3.43747C3.08152 7.27109 2.79294 6.97692 2.79294 6.61406C2.79294 6.25121 3.08152 5.95704 3.43747 5.95704H13.0624C13.4183 5.95704 13.7069 6.25121 13.7069 6.61406C13.7069 6.97692 13.4183 7.27109 13.0624 7.27109ZM3.43747 4.46778H13.0624C13.4183 4.46778 13.7069 4.17361 13.7069 3.81075C13.7069 3.4479 13.4183 3.15373 13.0624 3.15373H3.43747C3.08152 3.15373 2.79294 3.4479 2.79294 3.81075C2.79294 4.17361 3.08152 4.46778 3.43747 4.46778ZM8.89445 10.0744H12.4179V13.6661H8.89445V10.0744ZM17.7459 4.55538H21.3553C21.7112 4.55538 21.9998 4.84956 21.9998 5.21241C21.9998 18.6184 22.0009 18.9188 21.9981 18.9188C21.9979 18.9188 21.9978 18.9182 21.9976 18.9182C21.9424 20.3381 20.5799 21.318 19.2511 20.9046C18.4204 20.6463 17.8054 19.8839 17.7498 18.9666C17.7494 18.9666 17.7491 18.9683 17.7488 18.9683C17.744 18.9682 17.7459 18.546 17.7459 4.55538Z" fill="#EF6039"/>
</svg>
