<?xml version="1.0" standalone="no"?>
<!DOCTYPE svg PUBLIC "-//W3C//DTD SVG 20010904//EN"
 "http://www.w3.org/TR/2001/REC-SVG-20010904/DTD/svg10.dtd">
<svg version="1.0" xmlns="http://www.w3.org/2000/svg"
 width="250.000000pt" height="178.000000pt" viewBox="0 0 250.000000 178.000000"
 preserveAspectRatio="xMidYMid meet">

<g transform="translate(0.000000,178.000000) scale(0.100000,-0.100000)"
fill="#000000" stroke="none">
<path d="M0 890 l0 -890 1250 0 1250 0 0 890 0 890 -1250 0 -1250 0 0 -890z
m1200 720 c-22 -6 -23 -8 -7 -15 9 -4 17 -11 17 -17 0 -5 -4 -6 -10 -3 -5 3
-10 -1 -10 -9 0 -28 -16 -17 -27 19 l-11 35 36 -1 c33 -1 34 -2 12 -9z m98 1
c-2 -5 6 -16 16 -24 12 -9 16 -19 11 -27 -6 -10 -10 -9 -17 4 -11 20 -32 21
-24 1 3 -8 0 -15 -5 -15 -7 0 -9 9 -5 23 3 12 6 28 6 35 0 6 5 12 10 12 6 0 9
-4 8 -9z m32 -1 c0 -5 -2 -10 -4 -10 -3 0 -8 5 -11 10 -3 6 -1 10 4 10 6 0 11
-4 11 -10z m56 -32 c1 -31 -2 -38 -18 -38 -15 0 -17 3 -8 19 15 29 13 54 -5
47 -8 -3 -15 -1 -15 5 0 6 10 9 23 7 18 -2 22 -10 23 -40z m-289 2 c3 -16 10
-30 15 -30 6 0 8 14 6 30 -5 32 3 38 21 16 16 -19 3 -45 -26 -52 -29 -8 -31
-6 -39 34 -4 21 -3 32 5 32 6 0 14 -13 18 -30z m-69 -49 c-6 -2 -20 7 -30 20
-14 16 -18 18 -14 7 3 -10 1 -18 -4 -18 -12 0 -12 6 -3 39 l6 24 28 -34 c16
-19 23 -36 17 -38z m446 47 c9 -36 7 -48 -10 -48 -8 0 -13 4 -10 9 9 14 -20
21 -35 8 -11 -10 -11 -9 0 5 7 10 18 15 24 11 6 -4 8 0 4 9 -6 16 0 28 14 28
3 0 9 -10 13 -22z m84 12 c6 0 12 -4 12 -10 0 -5 -5 -9 -12 -7 -6 1 -14 -9
-18 -23 -3 -14 -15 -27 -25 -29 -15 -2 -17 0 -9 10 6 8 14 24 17 37 4 18 2 22
-9 18 -8 -3 -14 0 -14 5 0 7 9 9 23 5 12 -3 28 -6 35 -6z m-660 -22 c-2 -7 3
-12 10 -10 6 1 12 -2 12 -7 0 -5 -6 -11 -12 -14 -9 -3 -7 -7 6 -12 11 -5 22
-3 28 6 8 12 9 12 6 0 -3 -8 -16 -18 -30 -22 -22 -6 -27 -3 -36 27 -5 18 -7
35 -4 38 10 11 22 6 20 -6z m332 -8 c0 -5 -5 -10 -11 -10 -5 0 -7 5 -4 10 3 6
8 10 11 10 2 0 4 -4 4 -10z m-389 -34 c15 -32 15 -35 -1 -39 -9 -2 -17 1 -17
7 0 6 -4 23 -8 39 -10 38 8 34 26 -7z m-41 20 c0 -3 -4 -8 -10 -11 -5 -3 -10
-1 -10 4 0 6 5 11 10 11 6 0 10 -2 10 -4z m922 -44 c3 -32 0 -38 -14 -34 -11
3 -15 12 -12 30 l4 27 -20 -24 c-11 -13 -20 -20 -20 -15 0 10 41 54 51 54 4 0
9 -17 11 -38z m-922 -25 c0 -5 -7 -6 -16 -3 -9 3 -20 6 -25 6 -6 0 -7 5 -4 10
3 6 1 10 -4 10 -6 0 -11 7 -11 15 0 13 6 11 30 -7 17 -12 30 -26 30 -31z m840
16 c0 -12 -3 -13 -13 -4 -8 6 -17 8 -20 4 -4 -3 -7 1 -7 9 0 11 6 14 20 11 11
-3 20 -12 20 -20z m150 22 c0 -4 -7 -19 -15 -35 -11 -22 -12 -30 -2 -33 6 -3
8 -6 2 -6 -5 0 -16 3 -24 8 -11 7 -10 14 5 40 16 27 34 41 34 26z m-1097 -12
c-10 -3 -9 -11 2 -33 20 -39 3 -46 -19 -8 -15 25 -16 32 -5 39 8 5 19 8 24 8
6 0 4 -3 -2 -6z m781 -33 c48 -23 91 -85 101 -145 10 -56 50 -112 87 -120 l30
-7 -4 -121 c-3 -114 -2 -123 18 -139 40 -33 24 -177 -22 -195 -9 -3 -14 -20
-14 -43 0 -36 2 -38 39 -44 39 -6 51 -20 51 -57 0 -18 -14 -19 -504 -19 -278
0 -507 4 -510 9 -3 4 -2 28 2 52 7 40 10 44 45 52 35 9 37 11 37 49 0 27 6 45
18 54 16 12 16 15 0 62 -20 54 -24 117 -9 127 6 3 13 26 17 51 5 36 12 48 35
60 40 20 139 23 173 5 24 -13 32 -13 69 0 29 10 40 20 37 29 -2 8 -5 38 -5 65
-1 28 -7 60 -13 71 -6 12 -14 39 -18 60 -8 51 17 83 92 120 96 47 184 55 248
24z m390 -13 c-1 -12 -3 -26 -3 -32 -1 -5 -6 -3 -11 5 -8 13 -10 12 -10 -4 0
-14 5 -17 21 -13 16 4 19 3 11 -5 -9 -9 -18 -8 -37 0 -25 11 -25 12 -7 45 19
37 40 40 36 4z m-1226 -16 c12 -17 18 -32 13 -36 -9 -5 -51 44 -51 59 0 15 18
4 38 -23z m1165 4 c-3 -9 -8 -14 -10 -11 -3 3 -2 9 2 15 9 16 15 13 8 -4z
m-1248 -14 c-3 -5 9 -11 27 -13 36 -3 44 -24 16 -42 -13 -8 -21 -7 -29 1 -9 9
-7 11 8 7 12 -3 24 -1 27 5 5 7 -4 11 -23 11 -31 0 -47 13 -36 30 3 6 8 10 11
10 3 0 3 -4 -1 -9z m1414 -15 c8 -10 9 -16 1 -21 -5 -3 -10 1 -10 9 0 22 -37
20 -49 -2 -7 -13 -6 -23 2 -31 9 -10 8 -11 -5 -6 -18 7 -25 45 -11 58 12 12
60 7 72 -7z m-1439 -31 c0 -8 7 -15 15 -15 8 0 15 -5 15 -11 0 -6 -10 -9 -22
-7 -13 2 -23 9 -23 17 0 8 -6 16 -12 19 -22 7 -14 -16 12 -36 17 -14 22 -23
14 -27 -6 -4 -23 4 -37 18 -21 22 -23 28 -12 41 16 20 50 21 50 1z m1467 -27
c-15 -11 -27 -24 -27 -29 0 -16 33 -9 56 12 16 15 24 17 29 8 5 -7 4 -10 -2
-6 -6 4 -18 -2 -28 -13 -22 -24 -53 -26 -62 -4 -7 18 35 66 50 57 6 -3 -2 -15
-16 -25z m-1560 -19 c-17 -10 -15 -29 4 -29 6 0 7 5 3 12 -4 7 -3 8 5 4 6 -4
9 -11 6 -16 -10 -15 15 -22 33 -9 9 8 7 2 -6 -13 l-23 -26 -28 27 c-24 23 -25
28 -12 44 8 9 19 17 25 17 6 0 3 -5 -7 -11z m1683 -60 c9 -16 7 -21 -15 -29
-14 -5 -25 -17 -25 -27 0 -14 -2 -15 -9 -4 -5 7 -6 23 -3 35 5 18 3 19 -10 9
-8 -7 -18 -10 -21 -6 -8 8 55 53 65 46 5 -2 13 -13 18 -24z m-1703 -45 c-3 -3
-21 -2 -40 1 -25 5 -34 11 -30 21 4 10 10 11 25 3 25 -14 38 -1 16 15 -10 7
-15 16 -11 20 4 3 15 -7 26 -24 11 -17 17 -33 14 -36z m1743 -4 c0 -5 -14 -17
-30 -25 -18 -9 -28 -21 -24 -27 4 -7 3 -8 -4 -4 -20 12 -13 35 16 50 32 18 42
19 42 6z m-1800 -25 c44 -23 36 -36 -9 -17 -22 9 -37 20 -34 24 6 11 10 10 43
-7z m1824 -4 c3 -5 -1 -11 -9 -14 -9 -4 -12 -1 -8 9 6 16 10 17 17 5z m-1834
-41 c8 -5 12 -10 10 -12 -15 -10 -67 -24 -78 -20 -18 6 -4 22 19 22 10 0 19 5
19 10 0 12 10 13 30 0z m1848 -7 c-9 -2 -18 -14 -20 -26 -4 -30 -42 -30 -46 1
-2 12 1 22 6 22 6 0 8 -9 5 -20 -3 -11 0 -20 6 -20 6 0 11 8 11 18 0 24 9 32
34 31 16 -1 17 -2 4 -6z m-1858 -43 c8 -5 11 -10 5 -10 -5 0 -17 5 -25 10 -8
5 -10 10 -5 10 6 0 17 -5 25 -10z m1898 -32 c2 -10 -1 -18 -7 -18 -6 0 -8 7
-5 15 4 8 1 15 -5 15 -6 0 -11 -6 -11 -14 0 -7 -7 -19 -15 -26 -12 -10 -18
-10 -30 0 -17 14 -20 40 -5 40 5 0 7 -6 4 -14 -3 -8 -1 -17 5 -20 6 -4 13 5
17 19 5 19 12 25 28 23 11 -2 22 -11 24 -20z m-1931 6 c-3 -3 -12 -4 -19 -1
-8 3 -5 6 6 6 11 1 17 -2 13 -5z m23 -36 c0 -14 -21 -19 -55 -12 -19 3 -33 10
-30 14 6 10 85 8 85 -2z m1919 -32 c9 -11 10 -20 1 -36 -22 -40 -93 -9 -77 34
8 20 60 21 76 2z m11 -76 c0 -5 -4 -10 -10 -10 -5 0 -10 5 -10 10 0 6 5 10 10
10 6 0 10 -4 10 -10z m0 -31 c0 -11 -27 -12 -34 -1 -2 4 4 9 15 9 10 1 19 -2
19 -8z m-1076 -411 c-3 -4 -12 -8 -20 -8 -8 0 -14 4 -14 8 0 4 9 8 19 8 11 0
17 -4 15 -8z m-114 -33 c0 -8 5 -15 11 -15 6 0 9 7 5 15 -3 9 0 15 10 15 11 0
15 -6 11 -20 -3 -11 0 -23 5 -27 17 -10 -22 -33 -56 -33 -22 0 -27 3 -17 9 9
6 12 20 9 40 -3 21 0 31 9 31 7 0 13 -7 13 -15z m120 -25 l20 -40 -20 0 c-12
0 -19 4 -16 9 3 4 -1 16 -8 27 -12 15 -12 44 0 44 2 0 13 -18 24 -40z m60 5
c0 -28 4 -35 19 -35 11 0 22 6 24 13 3 7 6 5 6 -5 1 -14 -7 -18 -37 -18 l-38
0 4 40 c5 49 22 53 22 5z m112 -5 c5 -51 -2 -62 -26 -44 -11 8 -14 14 -8 14 7
0 12 15 12 35 0 48 17 44 22 -5z m28 30 c0 -5 -2 -10 -4 -10 -3 0 -8 5 -11 10
-3 6 -1 10 4 10 6 0 11 -4 11 -10z m42 -30 c3 -37 2 -40 -22 -39 -14 0 -19 3
-12 6 6 2 12 20 12 39 0 47 17 43 22 -6z m-599 -12 c12 -6 39 -28 60 -49 21
-21 48 -41 60 -45 53 -16 57 -54 6 -54 -32 0 -41 25 -11 33 19 5 -61 10 -128
7 -25 -1 -125 -28 -223 -60 -143 -47 -196 -60 -271 -66 l-92 -6 -35 30 c-19
16 -62 46 -96 66 -63 37 -97 68 -46 41 67 -35 285 -10 443 51 50 19 114 41
143 49 64 17 161 19 190 3z m1037 -8 c41 -12 129 -39 195 -62 104 -36 134 -41
232 -46 103 -4 115 -3 150 18 l38 22 -20 -22 c-11 -12 -41 -33 -67 -46 -26
-13 -63 -38 -83 -56 -68 -59 -172 -50 -435 39 -131 45 -182 57 -246 61 l-82 4
5 -26 c5 -23 2 -26 -23 -27 -18 -1 -22 -3 -11 -6 10 -3 36 2 58 11 49 20 60
20 53 2 -5 -13 -104 -62 -107 -54 -1 2 -9 17 -18 33 -18 32 -8 56 20 47 8 -3
11 0 7 6 -3 6 3 13 14 17 11 3 32 22 47 41 14 19 38 41 52 49 38 21 135 18
221 -5z m-725 -10 c3 -5 -1 -10 -10 -10 -9 0 -13 5 -10 10 3 6 8 10 10 10 2 0
7 -4 10 -10z m-252 -122 c12 -6 37 -14 55 -17 30 -6 32 -7 19 -25 -14 -19 -15
-19 -63 5 -26 13 -50 30 -52 37 -5 15 13 16 41 0z m39 -61 c191 -59 589 -42
693 29 20 13 38 24 40 24 2 0 6 -13 10 -29 3 -17 20 -49 37 -72 l30 -42 -23
-18 c-32 -24 -187 -74 -279 -90 -184 -31 -423 -6 -602 63 -84 32 -96 49 -58
83 10 9 26 39 35 65 l16 48 24 -23 c14 -12 49 -30 77 -38z"/>
<path d="M1300 1460 l-25 -8 25 -1 c21 -1 16 -6 -27 -27 -28 -13 -57 -32 -65
-42 -12 -16 -11 -16 6 -2 18 14 18 14 6 -7 -8 -12 -18 -19 -23 -16 -4 3 -15
-3 -22 -13 -14 -18 -14 -18 -15 -1 0 10 5 28 11 40 10 21 10 21 -5 3 -22 -27
-20 -78 4 -109 12 -15 18 -32 14 -44 -6 -16 -5 -16 10 2 l18 20 -7 -20 c-20
-56 -22 -85 -9 -96 11 -9 11 -15 3 -25 -13 -16 -73 -36 -105 -36 -27 0 -22
-24 7 -33 11 -4 17 -10 15 -14 -3 -4 1 -8 8 -8 8 0 12 6 9 14 -3 7 -12 13 -21
13 -13 0 -14 2 -3 13 10 10 16 7 32 -12 14 -17 19 -19 19 -8 0 13 9 15 49 10
34 -4 58 -1 80 10 33 17 54 5 30 -18 -16 -14 -106 -38 -117 -31 -5 3 -14 1
-22 -4 -10 -6 -3 -13 25 -24 29 -12 40 -13 46 -5 4 7 17 9 29 6 16 -4 20 -2
16 9 -3 8 1 17 10 21 22 8 29 -4 13 -23 -11 -13 -11 -18 -1 -21 33 -12 4 -23
-60 -24 -56 0 -68 -3 -52 -10 11 -6 28 -22 37 -37 15 -24 16 -25 17 -6 0 11
-6 26 -12 33 -11 10 0 11 57 5 39 -4 81 -7 94 -6 29 2 52 -15 44 -34 -5 -14
86 31 98 49 8 11 119 -2 119 -14 0 -5 -6 -9 -14 -9 -8 0 -16 -7 -20 -15 -4
-11 1 -15 19 -15 13 0 27 -5 31 -11 4 -7 -3 -10 -22 -7 -15 2 -29 -2 -31 -9
-3 -8 5 -13 21 -13 14 0 26 -5 26 -11 0 -7 -9 -9 -24 -5 -20 5 -23 3 -19 -14
3 -11 12 -20 21 -20 8 0 13 -2 10 -5 -3 -4 -18 -3 -32 1 -20 5 -25 11 -21 25
4 10 3 24 -1 31 -6 9 -10 5 -14 -12 -6 -24 -18 -27 -61 -17 -4 1 -9 -2 -10 -8
-2 -5 11 -11 29 -13 18 -2 45 -10 60 -18 26 -15 25 -15 -26 -9 -70 9 -105 19
-109 31 -4 12 52 46 61 37 7 -7 46 25 46 39 0 17 -27 7 -85 -32 -61 -40 -123
-54 -112 -26 5 11 -7 16 -49 22 -31 3 -67 7 -82 7 -14 0 -40 6 -58 13 -17 7
-34 10 -38 7 -3 -4 -6 1 -6 9 0 15 -29 44 -79 78 -13 9 -20 22 -17 32 3 15 1
16 -16 7 -23 -12 -20 -45 4 -41 23 4 31 -13 13 -28 -20 -17 -20 -51 0 -44 8 4
15 17 15 30 0 21 2 23 14 12 8 -7 12 -16 10 -20 -2 -4 4 -9 15 -13 27 -8 34
-35 15 -56 -20 -22 -34 -16 -34 14 0 18 -2 19 -10 7 -6 -10 -10 -11 -10 -2 0
6 -7 12 -15 12 -8 0 -31 11 -51 25 -22 15 -30 25 -20 25 15 0 18 31 5 45 -5 4
-39 12 -64 14 -5 1 -3 6 5 12 12 9 11 10 -5 6 -11 -3 -28 -8 -37 -12 -13 -5
-18 -2 -18 8 0 14 60 43 60 29 0 -4 4 -1 9 7 11 18 34 4 27 -16 -5 -12 -1 -14
21 -8 36 8 52 24 19 18 -22 -4 -26 -2 -26 16 0 21 -3 22 -45 15 -29 -4 -45 -3
-45 4 0 15 9 19 64 27 30 5 47 4 43 -2 -3 -5 10 -9 29 -9 19 0 34 4 34 8 0 24
-142 21 -166 -4 -15 -16 -44 -112 -44 -147 0 -14 8 -47 17 -73 15 -44 15 -49
1 -65 -9 -10 -18 -38 -20 -63 -3 -43 -4 -45 -43 -52 -38 -8 -40 -10 -42 -48
l-3 -40 491 0 490 0 -3 22 c-2 18 -12 25 -45 32 l-43 9 0 48 c0 39 4 49 20 54
11 3 20 15 20 25 0 10 4 22 10 25 5 3 9 31 9 61 -1 43 -6 57 -21 65 -17 9 -19
21 -17 131 1 119 1 122 -22 130 -12 5 -28 7 -35 4 -8 -3 -11 0 -8 8 3 7 -6 27
-20 44 -15 16 -26 42 -26 58 0 39 -36 109 -72 139 -25 22 -39 25 -96 24 -37
-1 -78 -5 -92 -9z m186 -32 c10 -13 12 -18 4 -12 -18 13 -60 16 -60 5 0 -14
-44 -21 -52 -8 -5 9 -10 9 -20 -1 -10 -10 -10 -14 2 -22 8 -5 18 -6 23 -3 5 3
26 -9 48 -26 37 -30 55 -29 25 2 -8 8 -16 23 -18 33 -2 14 2 18 17 16 30 -5
43 -22 17 -22 -21 0 -20 -3 15 -52 20 -29 42 -57 48 -63 6 -5 19 -22 28 -36
16 -27 16 -27 -15 -40 -16 -7 -36 -12 -44 -12 -8 0 -14 -4 -14 -8 0 -5 -7 -6
-15 -3 -10 4 -15 0 -15 -11 0 -13 6 -16 25 -11 14 3 36 9 49 12 24 6 24 5 20
-51 -2 -31 1 -66 7 -77 7 -12 7 -24 2 -29 -6 -6 -14 0 -20 13 -17 35 -26 62
-25 71 1 4 -3 7 -9 7 -7 0 -9 -11 -6 -27 9 -45 26 -83 37 -83 5 0 10 -6 10
-14 0 -9 -8 -12 -25 -8 -14 2 -23 7 -21 11 2 3 -2 12 -10 19 -12 11 -14 10
-14 -4 0 -21 -28 -54 -46 -54 -22 0 -29 49 -11 80 16 26 16 28 -3 33 -27 7
-25 24 4 31 13 3 26 12 29 20 4 11 -4 10 -41 -4 -28 -10 -57 -14 -72 -10 -17
4 -33 1 -50 -12 -24 -19 -25 -19 -41 1 -21 25 -29 27 -29 4 0 -19 -13 -10 -16
12 -2 17 75 57 90 47 11 -7 16 -8 49 -10 9 -1 17 -10 18 -19 0 -15 2 -15 7 -3
8 17 20 19 38 7 17 -10 25 20 9 33 -9 8 -15 8 -20 0 -8 -12 -46 -3 -57 14 -6
8 -8 7 -8 -1 0 -7 -5 -13 -11 -13 -5 0 -8 4 -5 9 7 10 -20 9 -30 -2 -4 -4 -18
-7 -30 -7 -17 0 -22 5 -21 20 1 23 15 27 23 6 5 -12 9 -12 25 2 28 24 24 28
-26 26 -25 -1 -45 3 -45 8 0 5 12 25 26 44 l26 34 25 -20 c14 -11 37 -20 52
-19 23 0 24 1 6 9 -18 8 -18 9 -2 9 30 1 62 22 48 31 -10 5 -9 9 2 13 10 4 33
-12 64 -43 27 -27 61 -52 76 -55 31 -8 38 10 7 20 -11 3 -20 14 -20 23 -1 9
-32 40 -70 69 -57 43 -69 49 -75 35 -3 -9 -1 -18 4 -20 20 -7 11 -24 -9 -19
-22 6 -38 -9 -18 -16 7 -2 1 -2 -14 0 -14 2 -29 -1 -33 -6 -10 -17 -38 -13
-32 3 4 10 1 13 -8 10 -23 -9 12 76 42 100 38 30 52 35 109 35 41 1 55 -3 70
-21z m-246 -108 c0 -5 -4 -10 -10 -10 -5 0 -10 5 -10 10 0 6 5 10 10 10 6 0
10 -4 10 -10z m0 -30 c0 -5 -2 -10 -4 -10 -3 0 -8 5 -11 10 -3 6 -1 10 4 10 6
0 11 -4 11 -10z m399 -117 c-13 -3 -15 -16 -12 -76 3 -40 0 -85 -6 -100 -9
-24 -13 -26 -32 -17 -14 8 -18 17 -14 28 4 9 9 26 12 37 4 16 3 17 -6 5 -7 -9
-11 -10 -11 -3 0 6 5 15 10 18 13 8 13 48 -1 62 -7 7 -6 15 5 26 15 14 14 16
-2 20 -9 3 3 5 28 5 25 0 38 -2 29 -5z m-244 -164 c-3 -3 0 -20 5 -38 9 -34 0
-40 -21 -14 -17 19 -20 65 -5 75 11 7 28 -11 21 -23z m-431 -147 c-35 -8 -4
-27 44 -27 59 0 78 -12 31 -19 -92 -14 -139 -16 -139 -6 0 5 7 10 15 10 11 0
13 5 8 18 -8 15 -8 28 -4 54 0 4 14 -1 31 -10 21 -12 25 -18 14 -20z m315 -38
c17 -4 28 -11 25 -16 -3 -5 -13 -7 -22 -4 -60 16 -72 16 -72 2 0 -8 -5 -18
-10 -21 -6 -4 -9 -1 -8 6 2 6 -2 13 -8 16 -6 2 -10 -7 -10 -19 1 -18 -4 -23
-22 -22 -16 0 -22 -4 -20 -15 2 -10 15 -17 36 -18 26 -1 32 2 33 20 0 12 3 16
6 10 9 -24 25 -13 19 12 -8 30 -3 31 35 4 26 -18 31 -19 51 -5 19 14 23 14 34
-2 12 -16 13 -16 14 2 0 16 6 18 51 14 28 -3 57 -12 66 -21 10 -10 27 -13 54
-10 44 6 99 -12 99 -33 0 -17 -44 -29 -67 -18 -10 4 -22 6 -27 5 -4 -1 -33 5
-63 14 -40 12 -59 13 -66 6 -18 -18 4 -30 91 -46 98 -19 152 -38 82 -29 -47 5
-197 31 -265 45 l-40 8 48 -2 c46 -2 59 5 35 19 -17 11 -142 4 -149 -8 -5 -8
-83 -17 -281 -31 -44 -3 -58 0 -58 10 0 7 7 13 16 13 12 0 15 7 12 25 -5 24
-3 25 49 25 30 0 62 4 72 10 10 5 34 10 54 12 28 1 37 7 42 25 5 21 11 23 69
23 35 0 77 -3 95 -6z m-29 -164 c0 -53 -2 -60 -20 -60 -18 0 -20 7 -20 54 0
50 6 62 33 65 4 1 7 -26 7 -59z"/>
<path d="M1300 1360 c-8 -5 -10 -10 -5 -10 6 0 17 5 25 10 8 5 11 10 5 10 -5
0 -17 -5 -25 -10z"/>
<path d="M1427 1239 c-4 -13 -14 -19 -35 -19 -40 0 -49 -17 -22 -42 21 -19 22
-19 35 -2 8 11 17 27 21 37 5 17 7 17 30 2 31 -20 31 -5 0 22 -23 21 -24 21
-29 2z"/>
<path d="M1260 1229 c0 -5 9 -9 20 -9 11 0 20 2 20 4 0 2 -9 6 -20 9 -11 3
-20 1 -20 -4z"/>
<path d="M1500 1140 c0 -5 5 -10 11 -10 5 0 7 5 4 10 -3 6 -8 10 -11 10 -2 0
-4 -4 -4 -10z"/>
<path d="M1462 1025 c0 -16 2 -22 5 -12 2 9 2 23 0 30 -3 6 -5 -1 -5 -18z"/>
<path d="M1069 744 c-7 -9 -22 -20 -34 -25 -14 -7 -8 -8 20 -3 37 5 54 17 55
37 0 13 -27 7 -41 -9z"/>
<path d="M1097 984 c17 -7 34 -23 38 -34 8 -27 25 -26 18 1 -5 19 -58 50 -80
48 -4 0 6 -7 24 -15z"/>
<path d="M2085 1281 c-6 -11 9 -23 19 -14 9 9 7 23 -3 23 -6 0 -12 -4 -16 -9z"/>
<path d="M2180 994 c0 -11 8 -14 32 -12 46 4 49 28 4 28 -26 0 -36 -4 -36 -16z"/>
<path d="M1070 425 c0 -8 5 -15 10 -15 6 0 10 7 10 15 0 8 -4 15 -10 15 -5 0
-10 -7 -10 -15z"/>
<path d="M720 391 c0 -12 4 -19 10 -16 6 3 10 2 10 -3 0 -10 30 -25 36 -19 2
2 -10 16 -26 32 -29 28 -30 28 -30 6z"/>
<path d="M665 349 c9 -17 19 -29 21 -26 7 7 -18 57 -28 57 -5 0 -1 -14 7 -31z"/>
<path d="M607 325 c9 -19 19 -33 21 -30 7 7 -19 65 -29 65 -5 0 -1 -16 8 -35z"/>
<path d="M555 313 c6 -22 6 -22 -29 -8 -29 12 -36 13 -36 2 0 -7 8 -13 18 -13
9 0 27 -4 40 -8 24 -8 30 8 11 34 -8 12 -9 10 -4 -7z"/>
<path d="M433 275 c6 -19 14 -35 18 -35 4 0 2 16 -4 35 -6 19 -14 35 -18 35
-4 0 -2 -16 4 -35z"/>
<path d="M383 279 c4 -13 7 -30 7 -36 0 -7 4 -13 8 -13 12 0 2 59 -11 67 -6 4
-8 -2 -4 -18z"/>
<path d="M240 282 c0 -5 7 -15 15 -22 21 -18 19 -33 -5 -27 -11 3 -18 1 -14
-4 9 -14 34 -10 41 7 3 9 -3 23 -16 35 -11 11 -21 16 -21 11z"/>
<path d="M302 278 c-7 -7 -12 -15 -12 -19 0 -16 33 -39 53 -38 20 1 20 2 -3 8
-19 5 -25 14 -25 34 1 15 0 27 0 27 -1 0 -6 -5 -13 -12z"/>
<path d="M1672 408 c-16 -16 -15 -33 2 -47 12 -10 13 -8 9 8 -3 12 0 28 7 36
15 18 -1 20 -18 3z"/>
<path d="M1736 407 c3 -10 9 -15 12 -12 3 3 0 11 -7 18 -10 9 -11 8 -5 -6z"/>
<path d="M1755 373 c-6 -36 3 -52 32 -53 15 0 43 39 43 60 -1 8 -7 0 -15 -17
-22 -51 -65 -41 -45 11 5 14 5 28 1 31 -5 2 -12 -12 -16 -32z"/>
<path d="M1843 340 c-6 -16 -8 -32 -4 -35 4 -2 13 11 19 30 13 43 1 47 -15 5z"/>
<path d="M1914 342 c0 -9 -4 -28 -8 -42 -7 -24 -6 -24 8 -6 9 11 16 26 16 34
0 10 7 13 21 9 27 -7 12 8 -16 17 -15 4 -21 1 -21 -12z"/>
<path d="M1974 306 c-3 -21 -4 -39 -1 -42 2 -3 8 11 11 32 4 20 5 38 2 41 -2
3 -8 -11 -12 -31z"/>
<path d="M2036 305 c-9 -26 -7 -32 5 -12 6 10 9 21 6 23 -2 3 -7 -2 -11 -11z"/>
<path d="M2060 284 c-13 -32 -13 -51 -1 -39 10 12 24 65 16 65 -3 0 -10 -12
-15 -26z"/>
<path d="M2097 290 c3 -11 9 -17 15 -14 5 3 4 12 -3 20 -16 19 -18 18 -12 -6z"/>
<path d="M2166 281 c-4 -6 -3 -11 1 -11 5 0 14 -12 21 -27 l12 -28 -6 30 c-6
35 -19 51 -28 36z"/>
<path d="M2090 252 c6 -13 14 -21 18 -18 3 4 -2 14 -12 24 -18 16 -18 16 -6
-6z"/>
<path d="M2137 240 c-9 -11 -13 -20 -7 -20 5 0 14 9 20 20 6 11 9 20 8 20 -2
0 -11 -9 -21 -20z"/>
<path d="M1107 153 c-11 -10 -8 -103 3 -103 6 0 10 25 10 55 0 56 -1 60 -13
48z"/>
<path d="M1171 146 c-7 -9 -11 -23 -7 -31 9 -25 24 -17 18 10 -3 20 0 25 17
25 18 0 21 -5 19 -32 -1 -18 -9 -42 -17 -52 -15 -18 -15 -18 6 -7 24 12 37 46
31 78 -4 23 -50 29 -67 9z"/>
<path d="M1308 154 c-5 -4 -8 -20 -8 -36 0 -19 -5 -28 -16 -28 -14 0 -15 2 -3
18 10 12 8 12 -10 -3 l-23 -20 26 -3 c14 -2 26 -10 26 -18 0 -8 5 -14 10 -14
6 0 10 7 10 15 0 8 6 15 13 15 9 0 9 2 0 8 -6 4 -13 22 -15 41 -2 18 -6 29
-10 25z"/>
<path d="M1360 135 c0 -15 6 -25 14 -25 7 0 19 -7 26 -15 10 -12 10 -18 -1
-32 -12 -14 -12 -16 1 -11 8 2 16 16 18 29 2 19 -4 28 -23 37 -33 15 -33 36 0
30 14 -3 25 -1 25 3 0 5 -13 9 -30 9 -25 0 -30 -4 -30 -25z"/>
<path d="M1357 49 c7 -7 15 -10 18 -7 3 3 -2 9 -12 12 -14 6 -15 5 -6 -5z"/>
</g>
</svg>
